<?xml version="1.0" encoding="utf-8"?>
<!-- Generator: Adobe Illustrator 19.2.1, SVG Export Plug-In . SVG Version: 6.00 Build 0)  -->
<svg version="1.1" id="Calque_1" xmlns="http://www.w3.org/2000/svg" xmlns:xlink="http://www.w3.org/1999/xlink" x="0px" y="0px"
	 viewBox="0 0 93 46" style="enable-background:new 0 0 93 46;" xml:space="preserve">
<style type="text/css">
	.st0{fill:#ED8BDF;}
</style>
<title>Page 1</title>
<desc>Created with Sketch.</desc>
<g>
	<path class="st0" d="M67.7,42.6c-0.6,0-1.3,0-1.9,0c-0.6,0-1.2-0.6-1.4-1.1c-0.2-0.6,0-1.2,0.6-1.6c0.3-0.2,0.6-0.4,1-0.5
		c0.4-0.1,0.8-0.2,1.2-0.4c-1.1,0-2.2,0-3.3,0c-0.9,0-1.7,0.5-2.2,1.3c-0.2,0.2-0.3,0.5-0.4,0.7v-5.7c0.6,0,1.1,0,1.7,0
		c1.5,0,2.6,0.7,3.5,1.8c0.4,0.5,0.6,1.1,0.9,1.6c0-1.1,0-2.2,0-3.3c-0.1-1.2-0.8-2.1-2-2.4c-0.7-0.2-1.4-0.2-2.1-0.3
		c-0.1,0-0.2,0.1-0.3,0.2c-0.5,0.7-1,1.4-1.5,2.1c0,0.1-0.1,0.1-0.2,0.2c0-1.2,0-2.3,0-3.4c0-0.2-0.1-0.4-0.2-0.5
		c-0.9-1.3-1.8-2.5-2.7-3.8c-0.1-0.1-0.1-0.1-0.2-0.3v17.9h3.1v-3c0,0.1,0.1,0.1,0.1,0.1c0.6,2.1,2.2,3.2,4.4,3
		c0.3,0,0.5-0.1,0.7-0.4c0.2-0.3,0.5-0.7,0.7-1c0.3-0.4,0.6-0.8,0.9-1.3C67.9,42.6,67.8,42.6,67.7,42.6z"/>
	<path class="st0" d="M55.3,34.1c-0.1-0.1-0.1-0.1-0.2-0.2c-1-1-2.2-1.3-3.6-1.2c-0.1,0-0.2,0.1-0.3,0.2c-1.6,2.2-3.1,4.3-4.7,6.5
		c-0.1,0.1-0.1,0.3-0.1,0.4c0,0.6,0,1.1,0,1.7c0,0.4-0.2,0.7-0.5,0.9c-0.4,0.2-0.8,0.4-1.2,0.6c0.5,0.7,1,1.5,1.5,2.3
		c0,0,0.2,0.1,0.2,0.1c0.5-0.2,1-0.3,1.4-0.6c0.8-0.5,1.2-1.2,1.5-2c0.4,0.6,0.9,1.1,1.2,1.7c0.4,0.8,1.1,1.1,2,0.9
		c0.8-0.1,1.6-0.3,2.2-0.9c1.3-1.2,1.2-3.2-0.2-4.4c-0.4-0.4-0.9-0.7-1.4-1c0.7-1,1.4-2,2.2-3C56,35,56,34.9,55.3,34.1z M50.8,42.6
		c-0.4,0-0.9,0-1.3,0v-7.3c0.9,0,1.7-0.1,2.5,0.3c0.7,0.4,1.2,1,1.2,1.9c0,0.9,0,1.7,0,2.6C53.2,41.4,52.2,42.6,50.8,42.6z"/>
	<path class="st0" d="M20.3,32.7c-0.1,0-0.3,0.1-0.4,0.2c-1.6,2.2-3.1,4.4-4.7,6.5c-0.1,0.1-0.1,0.3-0.1,0.4c0,0.6,0,1.1,0,1.7
		c0.1,2.3,2.4,4.1,4.8,3.8c0.1,0,0.2-0.1,0.2-0.1c0.6-0.8,1.2-1.7,1.8-2.5c0,0,0,0,0,0c0.1-0.1,0.1-0.1,0.2-0.2
		c0.6-0.9,1.3-1.8,1.9-2.7c0.3-0.4,0.7-0.8,0.9-1.3c0.2-0.5,0-1.1,0-1.6C24.9,34.2,22.8,32.4,20.3,32.7z M20.3,42.6
		c-1.1-0.1-2.1-1-2.1-2.1c0-1.7,0-3.4,0-5c1.2-0.3,2.5,0,3.2,0.9c0.4,0.5,0.5,1,0.5,1.6c0,1.6,0,3.2,0,4.8
		C21.3,42.6,20.8,42.6,20.3,42.6z"/>
	<path class="st0" d="M91.3,37.1c0.4,0.5,0.6,1.1,0.9,1.6c0-1,0-2.1,0-3.3c-0.1-1.3-0.9-2.2-2.1-2.6c-0.5-0.1-1-0.1-1.5-0.2
		c-0.5-0.1-0.9,0.1-1.2,0.6c-0.3,0.5-0.6,0.9-0.9,1.3c-0.1,0.2-0.3,0.4-0.5,0.7c-0.1-0.2-0.1-0.2-0.1-0.3c-0.5-1.2-1.4-2-2.7-2.3
		c-0.1,0-0.3,0-0.4,0.1c-0.6,0.8-1.1,1.5-1.7,2.3c0.1,0,0.1,0,0.2,0c1.1,0.1,1.7,0.7,1.7,1.8c0,2.7,0,5.4,0,8v0.4H86v-10
		c0.6,0,1.2,0,1.8,0C89.3,35.3,90.5,35.9,91.3,37.1z"/>
	<path class="st0" d="M77.5,33c-0.8-0.3-1.6-0.4-2.4-0.3c-0.1,0-0.2,0.1-0.3,0.2c-1.6,2.2-3.1,4.3-4.6,6.5c-0.1,0.1-0.1,0.2-0.1,0.4
		c0,0.7,0,1.3,0,2c0.1,2.2,2.4,4,4.6,3.5c0.1,0,0.3-0.1,0.3-0.2c0.5-0.7,1-1.4,1.5-2.1c0.1-0.1,0.1-0.2,0.2-0.3
		c-1.3,0-2.7,0.2-3.4-1.3c1.1-0.8,2.3-1.5,3.4-2.3c0,0,0-0.1,0-0.1h-3.5v-3.6c0.5,0,0.9,0,1.4,0c1.3,0.1,2.3,1.1,2.3,2.3
		c0,0.4,0,0.8,0,1.4c0.6-0.4,1.2-0.8,1.6-1.3C79.9,36.3,79.4,33.8,77.5,33z"/>
	<path class="st0" d="M33.2,32.9c-0.5,0.8-1.1,1.5-1.6,2.4c-0.1-0.1-0.1-0.2-0.1-0.3c-0.4-1.1-1.2-1.8-2.3-2.2
		c-0.6-0.2-0.6-0.2-0.9,0.3c-0.5,0.7-0.9,1.3-1.4,2c0.1,0,0.2,0,0.3,0.1c1,0.1,1.5,0.7,1.5,1.7c0,2.7,0,5.4,0,8c0,0.1,0,0.3,0,0.4h3
		v-10h3.2v-2.6c-0.4,0-0.8,0-1.2,0C33.5,32.6,33.3,32.7,33.2,32.9z"/>
	<path class="st0" d="M44.7,32.7c-0.4,0-0.8,0-1.2,0c-0.2,0-0.3,0.1-0.5,0.3c-0.5,0.8-1.1,1.5-1.6,2.3c0-0.1,0-0.1-0.1-0.2
		c0-0.1,0-0.1-0.1-0.2c-0.5-1.2-1.4-2-2.7-2.3c-0.2,0-0.3,0-0.4,0.1c-0.3,0.4-0.6,0.9-0.9,1.3c-0.2,0.3-0.4,0.6-0.7,1
		c0.1,0,0.2,0,0.3,0.1c1,0.1,1.5,0.7,1.5,1.7c0,2.7,0,5.4,0,8v0.4h3v-10h1.6h1.6V32.7z"/>
	<path class="st0" d="M90.6,41.1c-0.2-1,0.2-1.8,1.2-2.4c-0.8,0-1.5,0-2.2,0c-0.7,0-1.3,0.3-1.7,0.9c-0.7,0.9-0.8,2-0.4,3
		c0.5,1.4,1.4,2.4,3,2.7c0.2,0,0.4,0,0.5-0.2c0.5-0.7,1-1.4,1.5-2.1c0.1-0.1,0.1-0.2,0.2-0.3C91.6,42.6,90.8,42.2,90.6,41.1z"/>
	<path class="st0" d="M10.6,40.9c-0.2-0.8,0.1-1.5,0.9-2c0.2,0.1,0.3,0.2,0.5,0.2c0-0.1,0-0.1,0-0.2c0-1.7,0-3.5,0-5.2
		c0-1.6-0.5-2.9-1.6-4.1c-1.1-1.2-2.5-1.8-4.1-1.8c-0.3,0-0.6,0.1-0.8,0.4c-1.5,2.1-2.9,4.1-4.4,6.2C1,34.5,0.9,34.7,0.9,35
		c0,3.3,0,6.6,0,10v0.4H4V30.4c0.7,0,1.4,0,2,0c1.3,0,2.6,1,2.8,2.3c0.1,0.7,0.1,1.5,0.1,2.3c0,1.2,0.4,2.2,1.3,3
		c0.3,0.3,0.6,0.5,0.9,0.7c-0.4,0-0.7,0-1.1,0c-1.2,0-2.1,0.8-2.2,2c-0.1,1.5,0.5,2.6,1.7,3.5c0.4,0.3,0.8,0.5,1.3,0.5
		c0.2,0,0.3,0,0.4-0.2c0.5-0.7,0.9-1.3,1.4-1.9c0-0.1,0.1-0.1,0.1-0.2C11.5,42.2,10.8,41.7,10.6,40.9z"/>
	<path class="st0" d="M4.3,18.9c1.3,0.2,2.6,0.2,3.8-0.3c2.5-1.1,3.8-3.7,3.2-6.3c-0.4-1.7-1.5-3-3.1-3.8c-1-0.4-2-0.9-3-1.3
		C4.5,7,3.9,6.6,3.5,6C2.9,5.2,3.2,4.2,3.1,3.3c0.9,0,1.8,0,2.6,0c0.4,0,0.8,0.2,1.2,0.5c0.6,0.4,1,1,1,1.8C8,5.6,8,5.6,8,5.5
		c0.7-1,1.4-1.9,2.1-2.9c0-0.1,0-0.2,0-0.3C9.5,1.6,8.8,1,7.8,0.8C7,0.5,6.1,0.6,5.2,0.6c-0.1,0-0.3,0.1-0.4,0.2
		c-1.5,2-2.9,4.1-4.4,6.1c-0.1,0.1-0.1,0.3,0,0.4c0.4,1,1.2,1.7,2.1,2.1c1.2,0.5,2.4,1,3.7,1.5c2,0.8,2.5,2.9,1.2,4.5
		c-0.9,1.1-2.7,1.3-3.8,0.2c-0.6-0.7-0.9-1.4-1-2.4c-0.8,1.1-1.4,2-2.2,3c-0.1,0.2-0.1,0.3,0,0.5C1.5,17.9,2.7,18.7,4.3,18.9z"/>
	<path class="st0" d="M17.5,19.1c0.3,0,0.5-0.1,0.6-0.4c0.5-0.8,1.1-1.5,1.7-2.3c0.1,0.1,0.1,0.2,0.1,0.3c0.6,1.2,1.5,2,2.8,2.3
		c0.2,0,0.3,0,0.5-0.2c0.3-0.4,0.6-0.9,0.9-1.3c0.2-0.3,0.5-0.6,0.7-1c-0.1,0-0.2,0-0.3,0c-1.1-0.1-1.7-0.8-1.7-1.9c0-1.3,0-2.7,0-4
		c0-0.4,0-0.9-0.1-1.3c-0.3-2.2-2.7-3.8-4.9-3.3c-0.1,0-0.2,0.1-0.3,0.2C17.1,7,16.6,7.8,16,8.5c0,0.1-0.1,0.1-0.1,0.2
		c0.2,0,0.4,0,0.5,0c0.6,0,1.1,0,1.7,0.2c0.6,0.1,1.1,0.5,1.4,1.1c-1.1,0.7-2.2,1.5-3.3,2.2c-0.1,0.1-0.2,0.2-0.3,0.3c0,0,0,0,0,0
		c-0.5,0.4-1.2,0.7-1.6,1.2c-1.3,1.2-1.3,3.3,0,4.5C15.1,19,16.3,19.1,17.5,19.1z M15.8,13.8c0-0.4,0-0.9,0-1.3c1.2,0,2.4,0,3.6,0
		c0,0,0.1,0,0.2,0v3.8c-0.5,0-1.2,0.1-1.8,0C16.7,16.1,15.8,15.1,15.8,13.8z"/>
	<path class="st0" d="M38.8,19.1c0.3,0,0.5-0.1,0.6-0.4c0.5-0.8,1.1-1.5,1.7-2.3c0,0,0,0,0,0c0,0.1,0.1,0.2,0.1,0.2
		c0.6,1.2,1.5,2,2.8,2.3c0.2,0,0.3,0,0.5-0.2c0.3-0.4,0.6-0.9,0.9-1.3c0.2-0.3,0.5-0.6,0.7-1c-0.1,0-0.2,0-0.3,0
		c-1.1-0.1-1.7-0.8-1.7-1.9c0-1.3,0-2.7,0-4c0-0.4,0-0.9-0.1-1.3c-0.3-2.2-2.7-3.8-4.9-3.3c-0.1,0-0.2,0.1-0.3,0.2
		c-0.5,0.7-1.1,1.5-1.6,2.2c0,0.1-0.1,0.1-0.1,0.2c0.2,0,0.4,0,0.5,0c0.6,0,1.1,0,1.7,0.2c0.6,0.1,1.1,0.5,1.4,1.1
		c-1.1,0.7-2.2,1.5-3.3,2.2c-0.1,0.1-0.2,0.2-0.3,0.3c0,0,0,0,0,0c-0.5,0.4-1.2,0.7-1.6,1.2c-1.3,1.2-1.3,3.3,0,4.5
		C36.5,19,37.6,19.1,38.8,19.1z M37.2,13.8c0-0.4,0-0.9,0-1.3h3.9v3.8c-0.5,0-1.2,0.1-1.8,0C38.1,16.1,37.2,15.1,37.2,13.8z"/>
	<path class="st0" d="M51.9,8.6c0.3,0,0.6,0,0.9,0c0.7,0,1.4,0,2,0.1c1.7,0.4,2.8,1.6,3.4,3.2c0.1,0.1,0.1,0.3,0.1,0.4
		c0-1.1,0.1-2.3,0-3.4c0-1.3-0.8-2.4-2.1-2.8c-0.8-0.3-1.6-0.3-2.4-0.3c-0.1,0-0.2,0.1-0.2,0.2c-0.5,0.7-1,1.5-1.6,2.2
		c-0.1,0.1-0.1,0.2-0.2,0.3c0,0,0,0-0.1,0V8.1c0-1.1,0-2.2,0-3.3c0-0.2-0.1-0.4-0.2-0.5c-0.9-1.3-1.9-2.7-2.8-4
		c-0.1-0.1-0.1-0.2-0.2-0.3v19h3.2V8.6z"/>
	<path class="st0" d="M28,10.3c0,2.8,0,5.6,0,8.4v0.4h3.2V8.7h1.7h1.7V6c-0.4,0-0.9,0-1.3,0C33.1,6,33,6,32.9,6.2
		c-0.5,0.7-1.1,1.5-1.6,2.2c-0.1,0.1-0.1,0.1-0.2,0.2c-0.6-1.5-1.7-2.5-3-2.7c-0.1,0-0.3,0-0.3,0.1c-0.4,0.6-0.8,1.2-1.2,1.7
		c-0.2,0.2-0.3,0.4-0.5,0.7c0.1,0,0.2,0,0.2,0C27.4,8.6,28,9.3,28,10.3z"/>
	<path class="st0" d="M59,16.6c-1.4-0.1-2.1-1-2.2-1.7c-0.2-1,0.2-1.8,1.3-2.4c-0.7,0-1.4,0-2,0c-1.6-0.1-2.4,1.1-2.5,2.1
		c-0.2,1.3,0.3,2.3,1.1,3.2c0.6,0.6,1.2,1,2.1,1.2c0.3,0,0.4,0,0.6-0.2c0.5-0.7,1-1.4,1.5-2.1C58.9,16.7,59,16.6,59,16.6z"/>
</g>
</svg>
