<svg xmlns="http://www.w3.org/2000/svg" style="position: absolute; width: 0; height: 0; overflow: hidden;"><symbol id="icon-sarah-chehat-logo" viewBox="0 0 93 46"><style>.st0{fill:#ed8bdf}</style><title>Page 1</title><path class="st0" d="M67.7 42.6h-1.9c-.6 0-1.2-.6-1.4-1.1-.2-.6 0-1.2.6-1.6.3-.2.6-.4 1-.5.4-.1.8-.2 1.2-.4h-3.3c-.9 0-1.7.5-2.2 1.3-.2.2-.3.5-.4.7v-5.7H63c1.5 0 2.6.7 3.5 1.8.4.5.6 1.1.9 1.6v-3.3c-.1-1.2-.8-2.1-2-2.4-.7-.2-1.4-.2-2.1-.3-.1 0-.2.1-.3.2L61.5 35c0 .1-.1.1-.2.2v-3.4c0-.2-.1-.4-.2-.5-.9-1.3-1.8-2.5-2.7-3.8-.1-.1-.1-.1-.2-.3v17.9h3.1v-3c0 .1.1.1.1.1.6 2.1 2.2 3.2 4.4 3 .3 0 .5-.1.7-.4.2-.3.5-.7.7-1 .3-.4.6-.8.9-1.3-.2.1-.3.1-.4.1zM55.3 34.1l-.2-.2c-1-1-2.2-1.3-3.6-1.2-.1 0-.2.1-.3.2-1.6 2.2-3.1 4.3-4.7 6.5-.1.1-.1.3-.1.4v1.7c0 .4-.2.7-.5.9l-1.2.6c.5.7 1 1.5 1.5 2.3l.2.1c.5-.2 1-.3 1.4-.6.8-.5 1.2-1.2 1.5-2 .4.6.9 1.1 1.2 1.7.4.8 1.1 1.1 2 .9.8-.1 1.6-.3 2.2-.9 1.3-1.2 1.2-3.2-.2-4.4-.4-.4-.9-.7-1.4-1 .7-1 1.4-2 2.2-3 .7-1.1.7-1.2 0-2zm-4.5 8.5h-1.3v-7.3c.9 0 1.7-.1 2.5.3.7.4 1.2 1 1.2 1.9v2.6c0 1.3-1 2.5-2.4 2.5zM20.3 32.7c-.1 0-.3.1-.4.2-1.6 2.2-3.1 4.4-4.7 6.5-.1.1-.1.3-.1.4v1.7c.1 2.3 2.4 4.1 4.8 3.8.1 0 .2-.1.2-.1.6-.8 1.2-1.7 1.8-2.5l.2-.2c.6-.9 1.3-1.8 1.9-2.7.3-.4.7-.8.9-1.3.2-.5 0-1.1 0-1.6 0-2.7-2.1-4.5-4.6-4.2zm0 9.9c-1.1-.1-2.1-1-2.1-2.1v-5c1.2-.3 2.5 0 3.2.9.4.5.5 1 .5 1.6v4.8c-.6-.2-1.1-.2-1.6-.2zM91.3 37.1c.4.5.6 1.1.9 1.6v-3.3c-.1-1.3-.9-2.2-2.1-2.6-.5-.1-1-.1-1.5-.2s-.9.1-1.2.6c-.3.5-.6.9-.9 1.3-.1.2-.3.4-.5.7-.1-.2-.1-.2-.1-.3-.5-1.2-1.4-2-2.7-2.3-.1 0-.3 0-.4.1-.6.8-1.1 1.5-1.7 2.3h.2c1.1.1 1.7.7 1.7 1.8v8.4h3v-10h1.8c1.5.1 2.7.7 3.5 1.9zM77.5 33c-.8-.3-1.6-.4-2.4-.3-.1 0-.2.1-.3.2-1.6 2.2-3.1 4.3-4.6 6.5-.1.1-.1.2-.1.4v2c.1 2.2 2.4 4 4.6 3.5.1 0 .3-.1.3-.2l1.5-2.1c.1-.1.1-.2.2-.3-1.3 0-2.7.2-3.4-1.3 1.1-.8 2.3-1.5 3.4-2.3V39h-3.5v-3.6h1.4c1.3.1 2.3 1.1 2.3 2.3v1.4c.6-.4 1.2-.8 1.6-1.3 1.4-1.5.9-4-1-4.8zM33.2 32.9c-.5.8-1.1 1.5-1.6 2.4-.1-.1-.1-.2-.1-.3-.4-1.1-1.2-1.8-2.3-2.2-.6-.2-.6-.2-.9.3-.5.7-.9 1.3-1.4 2 .1 0 .2 0 .3.1 1 .1 1.5.7 1.5 1.7v8.4h3v-10h3.2v-2.6h-1.2c-.2-.1-.4 0-.5.2zM44.7 32.7h-1.2c-.2 0-.3.1-.5.3-.5.8-1.1 1.5-1.6 2.3 0-.1 0-.1-.1-.2 0-.1 0-.1-.1-.2-.5-1.2-1.4-2-2.7-2.3-.2 0-.3 0-.4.1-.3.4-.6.9-.9 1.3-.2.3-.4.6-.7 1 .1 0 .2 0 .3.1 1 .1 1.5.7 1.5 1.7v8.4h3v-10h3.2v-2.5z"/><path class="st0" d="M90.6 41.1c-.2-1 .2-1.8 1.2-2.4h-2.2c-.7 0-1.3.3-1.7.9-.7.9-.8 2-.4 3 .5 1.4 1.4 2.4 3 2.7.2 0 .4 0 .5-.2l1.5-2.1c.1-.1.1-.2.2-.3-1.1-.1-1.9-.5-2.1-1.6zM10.6 40.9c-.2-.8.1-1.5.9-2 .2.1.3.2.5.2v-.2-5.2c0-1.6-.5-2.9-1.6-4.1-1.1-1.2-2.5-1.8-4.1-1.8-.3 0-.6.1-.8.4-1.5 2.1-2.9 4.1-4.4 6.2-.1.1-.2.3-.2.6v10.4H4v-15h2c1.3 0 2.6 1 2.8 2.3.1.7.1 1.5.1 2.3 0 1.2.4 2.2 1.3 3 .3.3.6.5.9.7H10c-1.2 0-2.1.8-2.2 2-.1 1.5.5 2.6 1.7 3.5.4.3.8.5 1.3.5.2 0 .3 0 .4-.2.5-.7.9-1.3 1.4-1.9 0-.1.1-.1.1-.2-1.2-.2-1.9-.7-2.1-1.5zM4.3 18.9c1.3.2 2.6.2 3.8-.3 2.5-1.1 3.8-3.7 3.2-6.3-.4-1.7-1.5-3-3.1-3.8-1-.4-2-.9-3-1.3C4.5 7 3.9 6.6 3.5 6c-.6-.8-.3-1.8-.4-2.7h2.6c.4 0 .8.2 1.2.5.6.4 1 1 1 1.8.1 0 .1 0 .1-.1.7-1 1.4-1.9 2.1-2.9v-.3C9.5 1.6 8.8 1 7.8.8 7 .5 6.1.6 5.2.6c-.1 0-.3.1-.4.2-1.5 2-2.9 4.1-4.4 6.1-.1.1-.1.3 0 .4.4 1 1.2 1.7 2.1 2.1 1.2.5 2.4 1 3.7 1.5 2 .8 2.5 2.9 1.2 4.5-.9 1.1-2.7 1.3-3.8.2-.6-.7-.9-1.4-1-2.4-.8 1.1-1.4 2-2.2 3-.1.2-.1.3 0 .5 1.1 1.2 2.3 2 3.9 2.2zM17.5 19.1c.3 0 .5-.1.6-.4.5-.8 1.1-1.5 1.7-2.3.1.1.1.2.1.3.6 1.2 1.5 2 2.8 2.3.2 0 .3 0 .5-.2.3-.4.6-.9.9-1.3.2-.3.5-.6.7-1h-.3c-1.1-.1-1.7-.8-1.7-1.9v-4c0-.4 0-.9-.1-1.3-.3-2.2-2.7-3.8-4.9-3.3-.1 0-.2.1-.3.2-.4.8-.9 1.6-1.5 2.3 0 .1-.1.1-.1.2h.5c.6 0 1.1 0 1.7.2.6.1 1.1.5 1.4 1.1-1.1.7-2.2 1.5-3.3 2.2l-.3.3c-.5.4-1.2.7-1.6 1.2-1.3 1.2-1.3 3.3 0 4.5.8.8 2 .9 3.2.9zm-1.7-5.3v-1.3H19.6v3.8c-.5 0-1.2.1-1.8 0-1.1-.2-2-1.2-2-2.5zM38.8 19.1c.3 0 .5-.1.6-.4.5-.8 1.1-1.5 1.7-2.3 0 .1.1.2.1.2.6 1.2 1.5 2 2.8 2.3.2 0 .3 0 .5-.2.3-.4.6-.9.9-1.3.2-.3.5-.6.7-1h-.3c-1.1-.1-1.7-.8-1.7-1.9v-4c0-.4 0-.9-.1-1.3-.3-2.2-2.7-3.8-4.9-3.3-.1 0-.2.1-.3.2-.5.7-1.1 1.5-1.6 2.2 0 .1-.1.1-.1.2h.5c.6 0 1.1 0 1.7.2.6.1 1.1.5 1.4 1.1-1.1.7-2.2 1.5-3.3 2.2l-.3.3c-.5.4-1.2.7-1.6 1.2-1.3 1.2-1.3 3.3 0 4.5 1 1 2.1 1.1 3.3 1.1zm-1.6-5.3v-1.3h3.9v3.8c-.5 0-1.2.1-1.8 0-1.2-.2-2.1-1.2-2.1-2.5zM51.9 8.6h.9c.7 0 1.4 0 2 .1 1.7.4 2.8 1.6 3.4 3.2.1.1.1.3.1.4 0-1.1.1-2.3 0-3.4 0-1.3-.8-2.4-2.1-2.8-.8-.3-1.6-.3-2.4-.3-.1 0-.2.1-.2.2-.5.7-1 1.5-1.6 2.2-.1.1-.1.2-.2.3h-.1v-.4-3.3c0-.2-.1-.4-.2-.5-.9-1.3-1.9-2.7-2.8-4-.1-.1-.1-.2-.2-.3v19h3.2V8.6zM28 10.3v8.8h3.2V8.7h3.4V6h-1.3c-.2 0-.3 0-.4.2-.5.7-1.1 1.5-1.6 2.2l-.2.2c-.6-1.5-1.7-2.5-3-2.7-.1 0-.3 0-.3.1-.4.6-.8 1.2-1.2 1.7-.2.2-.3.4-.5.7h.2c1.1.2 1.7.9 1.7 1.9z"/><path class="st0" d="M59 16.6c-1.4-.1-2.1-1-2.2-1.7-.2-1 .2-1.8 1.3-2.4h-2c-1.6-.1-2.4 1.1-2.5 2.1-.2 1.3.3 2.3 1.1 3.2.6.6 1.2 1 2.1 1.2.3 0 .4 0 .6-.2l1.5-2.1.1-.1z"/></symbol></svg>